<!-- Generated by IcoMoon.io -->
<svg version="1.1" xmlns="http://www.w3.org/2000/svg" width="384" height="448" viewBox="0 0 384 448">
<title></title>
<g id="icomoon-ignore">
</g>
<path d="M321.25 224c0-4.25-1.5-8.25-4.5-11.25l-113.25-113.25c-3-3-7-4.5-11.25-4.5s-8.25 1.5-11.25 4.5l-22.75 22.75c-3 3-4.5 7-4.5 11.25s1.5 8.25 4.5 11.25l47.25 47.25h-125.5c-8.75 0-16 7.25-16 16v32c0 8.75 7.25 16 16 16h125.5l-47.25 47.25c-3 3-4.75 7-4.75 11.25s1.75 8.25 4.75 11.25l22.75 22.75c3 3 7 4.5 11.25 4.5s8.25-1.5 11.25-4.5l113.25-113.25c3-3 4.5-7 4.5-11.25zM384 224c0 106-86 192-192 192s-192-86-192-192 86-192 192-192 192 86 192 192z"></path>
</svg>
