<!-- Generated by IcoMoon.io -->
<svg version="1.1" xmlns="http://www.w3.org/2000/svg" width="640" height="640" viewBox="0 0 640 640" fill="#000s">
<title></title>
<g id="icomoon-ignore">
</g>
<path d="M544 352v96l-96-96h-192c-35.346 0-64-28.654-64-64v0-224c0-35.2 28.8-64 64-64h320c35.346 0 64 28.654 64 64v0 224c0 35.346-28.654 64-64 64v0h-32zM448 416v64c0 35.346-28.654 64-64 64v0h-192l-96 96v-96h-32c-35.346 0-64-28.654-64-64v0-224c0-35.2 28.8-64 64-64h64v96c0 70.693 57.308 128 128 128v0h192z"></path>
</svg>
