<!-- Generated by IcoMoon.io -->
<svg version="1.1" xmlns="http://www.w3.org/2000/svg" viewBox="0 0 544 448" fill="#E16451">
<title></title>
<g id="icomoon-ignore">
</g>
<path d="M160 408l96-48v-78.5l-96 41v85.5zM144 294.5l101-43.25-101-43.25-101 43.25zM416 408l96-48v-78.5l-96 41v85.5zM400 294.5l101-43.25-101-43.25-101 43.25zM288 221.25l96-41.25v-66.5l-96 41v66.75zM272 126.5l110.25-47.25-110.25-47.25-110.25 47.25zM544 256v104c0 12-6.75 23.25-17.75 28.5l-112 56c-4.5 2.5-9.25 3.5-14.25 3.5s-9.75-1-14.25-3.5l-112-56c-0.75-0.25-1.25-0.5-1.75-1-0.5 0.5-1 0.75-1.75 1l-112 56c-4.5 2.5-9.25 3.5-14.25 3.5s-9.75-1-14.25-3.5l-112-56c-11-5.25-17.75-16.5-17.75-28.5v-104c0-12.75 7.75-24.25 19.5-29.5l108.5-46.5v-100c0-12.75 7.75-24.25 19.5-29.5l112-48c4-1.75 8.25-2.5 12.5-2.5s8.5 0.75 12.5 2.5l112 48c11.75 5.25 19.5 16.75 19.5 29.5v100l108.5 46.5c12 5.25 19.5 16.75 19.5 29.5z"></path>
</svg>
