<!-- Generated by IcoMoon.io -->
<svg version="1.1" xmlns="http://www.w3.org/2000/svg" width="416" height="448" viewBox="0 0 416 448" fill="#E16451">
<title></title>
<g id="icomoon-ignore">
</g>
<path d="M224 407.25l160-87.25v-159l-160 58.25v188zM208 191l174.5-63.5-174.5-63.5-174.5 63.5zM416 128v192c0 11.75-6.5 22.5-16.75 28l-176 96c-4.75 2.75-10 4-15.25 4s-10.5-1.25-15.25-4l-176-96c-10.25-5.5-16.75-16.25-16.75-28v-192c0-13.5 8.5-25.5 21-30l176-64c3.5-1.25 7.25-2 11-2s7.5 0.75 11 2l176 64c12.5 4.5 21 16.5 21 30z"></path>
</svg>
